<?xml version="1.0" standalone="no"?>
<!DOCTYPE svg PUBLIC "-//W3C//DTD SVG 20010904//EN"
 "http://www.w3.org/TR/2001/REC-SVG-20010904/DTD/svg10.dtd">
<svg version="1.0" xmlns="http://www.w3.org/2000/svg"
 width="537.000000pt" height="537.000000pt" viewBox="0 0 537.000000 537.000000"
 preserveAspectRatio="xMidYMid meet">
<metadata>
Created by potrace 1.11, written by Peter Selinger 2001-2013
</metadata>
<g transform="translate(0.000000,537.000000) scale(0.100000,-0.100000)"
fill="#000000" stroke="none">
<path d="M1230 5008 c0 -5 -3 -7 -7 -6 -29 8 -168 -66 -157 -83 3 -5 1 -8 -4
-7 -5 2 -21 -9 -35 -24 -14 -16 -23 -28 -19 -28 4 0 2 -4 -4 -8 -11 -8 -42
-71 -51 -105 -8 -28 -9 -166 -1 -192 3 -11 11 -33 18 -50 7 -16 14 -32 14 -35
2 -9 49 -75 66 -90 27 -26 79 -60 90 -60 5 0 10 -4 10 -10 0 -6 3 -9 8 -9 19
3 43 -2 39 -8 -8 -13 134 -21 193 -10 14 2 38 9 53 16 16 6 33 11 38 11 5 0 9
4 9 9 0 5 9 12 19 16 24 7 91 70 91 85 0 6 4 9 9 6 5 -3 12 5 15 19 4 14 10
25 15 25 5 0 13 15 16 33 4 17 11 37 15 42 4 6 6 20 5 33 -1 12 1 22 4 22 4 0
6 20 7 45 0 25 -3 45 -7 45 -4 0 -5 14 -4 30 1 17 -2 30 -7 30 -5 0 -8 6 -7
13 2 20 -13 57 -24 57 -6 0 -8 3 -4 6 12 13 -98 126 -142 145 -17 8 -31 16
-31 19 0 3 -8 7 -17 8 -32 3 -48 7 -60 15 -16 10 -153 5 -153 -5z"/>
<path d="M188 4953 c-10 -3 -18 -9 -18 -14 0 -6 -4 -8 -8 -5 -23 14 -90 -94
-86 -139 4 -48 55 -131 129 -211 14 -15 25 -33 25 -41 0 -8 5 -11 10 -8 5 3
10 2 10 -3 0 -5 26 -37 58 -70 67 -71 215 -230 266 -287 20 -22 36 -44 36 -48
0 -5 5 -5 10 -2 6 3 10 1 10 -5 0 -6 10 -21 23 -34 37 -38 173 -196 240 -280
18 -22 39 -46 47 -55 8 -9 33 -39 55 -66 22 -28 44 -55 50 -61 5 -7 26 -31 45
-55 19 -24 44 -53 55 -64 22 -22 52 -70 61 -97 4 -10 10 -18 14 -18 4 0 11
-11 14 -25 4 -14 11 -25 16 -25 6 0 10 -6 10 -14 0 -8 13 -41 30 -72 16 -31
27 -61 24 -66 -3 -4 0 -8 5 -8 6 0 11 -7 11 -15 0 -8 9 -34 19 -58 33 -70 54
-121 57 -135 1 -8 5 -16 8 -20 8 -8 76 -9 76 -1 0 3 8 6 18 6 41 0 53 4 51 16
-5 36 3 56 24 63 12 5 25 7 30 6 4 -1 7 2 7 8 0 5 11 10 24 10 14 0 27 4 31 9
3 6 14 8 25 6 10 -2 24 2 30 10 15 19 78 11 95 -11 7 -11 11 -22 9 -25 -2 -4
3 -9 11 -13 8 -3 15 -1 15 5 0 6 4 7 10 4 5 -3 21 2 35 11 14 9 25 13 25 9 0
-4 7 -2 15 5 8 7 15 9 15 4 0 -5 4 -4 8 1 4 6 35 23 70 40 35 16 66 34 69 39
3 5 1 6 -5 3 -5 -4 7 27 28 68 21 40 35 77 32 80 -3 3 -1 5 5 5 6 0 20 18 30
39 19 38 19 42 3 93 -9 30 -16 64 -15 76 1 11 -4 23 -10 26 -6 2 -11 20 -10
40 1 20 -2 36 -8 36 -5 0 -7 11 -5 25 3 14 2 25 -1 25 -3 0 -6 17 -6 38 0 20
-3 42 -7 47 -4 6 -3 17 3 25 8 13 11 13 23 -2 7 -10 17 -18 21 -18 10 0 147
-100 163 -119 6 -8 12 -11 12 -7 0 4 7 1 15 -8 18 -18 18 -16 0 -60 -8 -20
-15 -39 -14 -43 0 -3 -6 -10 -15 -15 -9 -5 -14 -13 -11 -19 4 -5 3 -9 -2 -9
-4 0 -19 -25 -32 -55 -14 -30 -29 -55 -34 -55 -4 0 -6 -4 -2 -10 3 -5 -3 -18
-15 -30 -11 -11 -20 -22 -19 -25 1 -10 -46 -100 -59 -114 -7 -7 -11 -20 -8
-27 3 -7 1 -16 -5 -19 -13 -8 -8 -75 6 -75 5 0 3 -5 -5 -10 -10 -6 -11 -10 -2
-10 6 0 11 -3 11 -7 -1 -5 0 -11 1 -15 1 -5 3 -11 4 -15 6 -29 75 -106 98
-109 5 -1 14 -2 21 -3 9 -1 8 -4 -2 -10 -14 -9 -48 4 -62 22 -3 5 -10 8 -15 7
-13 -3 -64 33 -64 45 0 6 -9 17 -19 25 -11 7 -17 18 -14 23 3 5 -8 2 -25 -7
-16 -8 -32 -12 -36 -9 -3 4 -6 1 -6 -6 0 -7 -4 -9 -10 -6 -5 3 -10 2 -10 -2 0
-10 -110 -50 -123 -45 -5 1 -6 -2 -2 -8 3 -5 0 -10 -8 -10 -9 0 -17 -15 -21
-40 -5 -34 -12 -42 -49 -60 -23 -11 -59 -23 -79 -27 -21 -3 -38 -9 -38 -12 0
-9 -43 -7 -58 3 -7 4 -12 4 -12 -1 0 -4 -8 4 -17 17 -10 14 -18 29 -18 34 0 5
-12 10 -27 10 -16 1 -28 -2 -28 -6 0 -4 -3 -7 -7 -7 -5 1 -25 1 -45 0 l-38 -1
6 -42 c11 -85 4 -169 -16 -193 -4 -5 -9 -13 -9 -17 -2 -9 -3 -14 -27 -88 -10
-30 -17 -58 -16 -62 1 -5 -2 -8 -8 -8 -5 0 -10 -11 -10 -25 0 -14 -4 -25 -9
-25 -5 0 -9 -6 -8 -13 1 -33 -4 -48 -14 -41 -7 4 -10 1 -7 -7 3 -8 -3 -33 -13
-56 -10 -22 -15 -44 -12 -47 4 -3 1 -6 -5 -6 -7 0 -12 -9 -12 -20 0 -11 -4
-20 -9 -20 -4 0 -7 -10 -7 -22 1 -13 -2 -28 -7 -35 -8 -11 -10 -74 -4 -118 6
-36 35 -103 55 -123 6 -7 12 -17 12 -21 0 -5 13 -23 29 -42 16 -18 28 -37 25
-40 -2 -4 4 -10 14 -13 10 -3 25 -18 34 -34 9 -15 28 -41 42 -57 39 -44 46
-53 46 -60 0 -4 6 -12 13 -19 6 -8 19 -24 27 -36 8 -12 20 -28 25 -34 6 -6 21
-28 35 -48 14 -21 28 -38 33 -38 4 0 7 -6 7 -14 0 -8 3 -16 8 -18 4 -1 30 -34
57 -71 56 -77 105 -133 105 -122 0 5 9 0 21 -11 12 -10 23 -18 25 -16 2 1 5 2
7 1 14 -6 87 -3 87 4 0 4 5 5 10 2 6 -3 10 -1 10 5 0 6 4 9 9 5 6 -3 19 5 30
17 12 12 21 18 21 12 0 -5 12 14 25 41 27 54 33 123 13 143 -7 7 -9 12 -4 12
4 0 -2 13 -13 29 -11 15 -18 31 -14 35 3 3 1 6 -5 6 -7 0 -12 5 -12 11 0 6 -7
17 -15 26 -8 8 -13 19 -10 24 4 5 2 9 -3 9 -10 0 -58 81 -54 93 1 4 -2 7 -6 7
-5 0 -17 16 -28 35 -10 19 -22 35 -26 35 -4 0 -5 6 -2 14 3 7 -2 16 -11 20 -9
3 -13 10 -10 16 3 5 1 10 -4 10 -6 0 -11 7 -11 15 0 8 -4 15 -8 15 -5 0 -14
16 -22 35 -8 19 -17 35 -22 35 -4 0 -8 6 -8 13 0 7 -9 23 -19 34 -11 12 -18
23 -15 26 2 2 -2 10 -11 17 -8 7 -15 19 -15 26 0 8 -5 14 -11 14 -7 0 -9 10
-5 28 4 15 7 33 8 40 1 6 4 12 8 12 4 0 17 20 31 45 13 25 31 58 39 73 40 69
54 98 52 105 -1 4 2 7 8 7 5 0 10 7 10 15 0 8 4 15 8 15 4 0 14 16 21 35 7 19
16 35 21 35 5 0 11 13 15 29 8 38 45 58 74 40 11 -8 21 -19 21 -26 0 -7 5 -13
11 -13 5 0 8 -4 5 -9 -3 -4 3 -16 14 -26 11 -10 18 -21 15 -25 -2 -4 4 -16 13
-26 10 -10 18 -21 18 -24 -1 -10 68 -145 76 -148 4 -2 8 -11 8 -21 0 -9 6 -23
13 -29 6 -7 12 -16 13 -20 1 -12 43 -97 51 -106 4 -4 8 -11 8 -14 1 -4 9 -23
20 -42 11 -19 20 -37 21 -40 1 -3 5 -15 9 -27 4 -13 11 -23 16 -23 5 0 9 -7 9
-15 0 -8 4 -15 8 -15 4 0 9 -10 9 -22 1 -13 7 -24 13 -26 5 -2 10 -12 10 -22
0 -9 7 -23 15 -30 8 -7 13 -16 10 -20 -3 -5 -2 -10 2 -12 9 -3 44 -76 40 -82
-1 -1 3 -9 10 -17 18 -22 123 -232 123 -247 0 -7 5 -10 10 -7 6 3 10 -1 10
-10 0 -38 87 -116 121 -110 10 2 19 0 19 -6 0 -5 12 -7 28 -3 15 3 35 6 45 7
9 1 17 5 17 10 0 4 5 5 10 2 6 -3 10 -1 10 4 0 6 6 11 13 11 19 0 59 58 62 90
1 15 5 32 9 38 8 13 3 44 -13 86 -7 16 -9 31 -7 34 3 2 -2 11 -10 19 -8 8 -12
19 -9 24 4 5 1 9 -4 9 -6 0 -10 3 -9 8 3 7 -17 65 -33 94 -5 10 -9 25 -9 33 0
8 -5 15 -11 15 -5 0 -8 4 -5 8 2 4 -4 26 -14 49 -10 23 -16 44 -12 47 3 3 0 6
-6 6 -7 0 -12 6 -12 14 0 7 -13 45 -29 84 -16 39 -27 73 -23 76 3 3 0 6 -6 6
-7 0 -11 3 -10 8 1 7 -4 24 -22 67 -11 26 -23 58 -25 68 -2 4 -4 10 -5 15 -1
4 -2 10 -1 15 0 4 -3 7 -8 7 -5 0 -12 11 -15 25 -3 13 -11 37 -18 52 -6 15
-12 30 -13 33 -8 25 -27 68 -36 84 -8 14 -8 17 3 11 7 -3 5 0 -4 8 -10 8 -15
16 -12 20 3 3 1 13 -4 24 -18 33 -43 93 -47 112 -2 10 -8 27 -13 37 -6 11 -20
46 -32 79 -22 61 -35 94 -52 130 -5 12 -10 28 -12 38 -1 9 -5 20 -9 23 -4 4
-7 16 -7 26 0 10 -4 18 -8 18 -18 0 -9 45 13 66 14 13 25 27 25 31 0 10 25 44
53 74 9 11 14 19 10 19 -3 0 3 10 15 23 12 13 19 27 15 30 -3 4 -1 7 5 7 7 0
12 5 12 11 0 6 7 17 15 26 8 8 12 20 8 26 -3 7 -3 9 2 5 8 -7 85 104 85 122 0
6 5 10 12 10 6 0 9 3 5 6 -3 4 7 26 24 50 16 24 27 44 23 44 -4 0 1 7 12 16
10 8 12 12 4 8 -12 -6 -12 -4 1 12 33 39 67 135 64 179 -3 44 -16 85 -27 85
-5 0 -6 4 -3 10 6 9 -155 180 -169 180 -4 0 -18 12 -31 26 -14 15 -25 24 -25
20 0 -3 -9 3 -20 14 -11 11 -25 20 -31 20 -5 0 -7 5 -4 10 3 6 0 10 -7 10 -11
0 -59 38 -109 85 -9 8 -21 15 -28 15 -7 0 -9 5 -6 10 3 6 0 10 -7 10 -7 0 -25
10 -40 23 -14 12 -36 30 -47 40 -12 9 -26 17 -31 17 -6 0 -10 5 -10 10 0 6 -6
10 -14 10 -8 0 -17 7 -20 16 -3 8 -10 12 -16 9 -5 -3 -10 -2 -10 3 0 5 -15 15
-32 22 -18 6 -41 16 -50 21 -10 5 -28 9 -41 9 -13 0 -28 5 -34 11 -8 8 -13 8
-17 0 -4 -6 -14 -8 -24 -3 -22 10 -43 9 -61 -3 -10 -5 -16 -4 -19 4 -3 8 -8 9
-17 1 -7 -6 -17 -10 -21 -9 -17 4 -84 -13 -84 -21 0 -5 -15 -25 -34 -44 -18
-20 -31 -36 -28 -36 12 0 -92 -73 -135 -95 -50 -24 -134 -49 -168 -49 -11 0
-23 -5 -27 -10 -5 -8 -8 -8 -8 -1 0 6 -19 10 -42 10 -24 -1 -62 4 -85 11 -24
7 -43 10 -43 7 0 -3 -6 0 -13 6 -8 6 -17 8 -20 4 -4 -3 -7 -1 -7 5 0 7 -9 12
-20 12 -11 0 -20 5 -20 10 0 6 -7 10 -15 10 -8 0 -15 4 -15 9 0 5 -13 14 -30
21 -16 7 -30 19 -30 27 0 8 -4 12 -8 9 -4 -2 -29 18 -56 45 -26 27 -51 49 -55
49 -10 0 -36 44 -32 55 1 5 0 7 -4 3 -7 -7 -41 25 -106 100 -20 23 -42 42 -48
42 -6 0 -10 3 -9 8 1 4 -35 45 -80 91 -45 46 -82 88 -82 93 0 5 -4 6 -10 3 -5
-3 -10 -2 -10 3 0 5 -12 21 -26 36 -15 14 -24 26 -21 26 3 0 -21 27 -54 60
-32 33 -59 65 -59 70 0 6 -4 8 -10 5 -5 -3 -10 -2 -10 3 0 22 -97 45 -142 35z"/>
<path d="M2194 4419 c-4 -8 -3 -9 4 -5 7 4 12 3 12 -1 0 -5 18 -19 40 -33 22
-14 40 -28 40 -32 0 -4 8 -9 18 -12 9 -4 31 -19 48 -34 18 -15 42 -34 54 -42
13 -8 33 -25 46 -37 13 -13 28 -23 33 -23 5 0 17 -10 25 -22 9 -12 16 -18 16
-13 0 6 7 1 15 -9 8 -11 15 -17 15 -13 0 3 10 -4 23 -16 13 -12 33 -29 46 -37
13 -8 47 -39 77 -68 30 -29 54 -50 54 -47 0 9 81 -79 98 -107 9 -16 20 -28 25
-28 4 0 5 -4 2 -10 -3 -5 -2 -10 3 -10 9 0 23 -31 26 -55 1 -5 5 -13 9 -16 15
-11 11 -179 -4 -179 -4 0 -6 -8 -4 -17 1 -10 -2 -24 -8 -32 -6 -7 -12 -19 -13
-27 -1 -7 -11 -26 -23 -42 -11 -16 -18 -32 -14 -36 3 -3 1 -6 -5 -6 -7 0 -11
-3 -10 -7 1 -5 -18 -42 -42 -83 -24 -41 -43 -78 -42 -82 1 -5 -2 -8 -8 -8 -5
0 -19 -18 -30 -40 -11 -22 -26 -40 -32 -40 -6 0 -8 -3 -5 -7 4 -3 -4 -21 -18
-39 -14 -18 -25 -37 -25 -43 0 -6 -4 -11 -10 -11 -5 0 -10 -7 -10 -15 0 -8 -4
-15 -10 -15 -5 0 -10 -7 -10 -15 0 -9 -7 -18 -15 -21 -8 -4 -12 -10 -9 -15 3
-5 1 -9 -4 -9 -4 0 -15 -15 -24 -32 -14 -30 -14 -36 4 -66 10 -18 20 -41 21
-50 2 -9 8 -26 14 -37 11 -20 13 -27 13 -46 0 -5 5 -7 12 -3 6 4 8 3 4 -4 -3
-6 4 -37 16 -69 12 -32 21 -61 20 -65 -1 -5 2 -8 8 -8 5 0 10 -6 10 -14 0 -12
18 -61 58 -158 9 -21 22 -38 29 -38 7 0 13 -5 13 -11 0 -5 5 -7 10 -4 6 3 10
2 10 -2 0 -9 55 -45 65 -43 3 0 13 -6 21 -15 9 -8 22 -15 30 -15 8 0 14 -4 14
-10 0 -5 6 -10 14 -10 8 0 16 -5 18 -10 2 -6 14 -12 27 -15 13 -2 32 -12 42
-21 11 -10 19 -14 19 -10 0 4 12 0 28 -8 34 -18 65 -30 75 -28 4 1 7 -3 7 -9
0 -5 4 -8 9 -4 5 3 12 1 16 -5 3 -5 17 -10 31 -10 13 0 24 -4 24 -9 0 -5 8 -8
18 -6 9 1 22 -1 27 -6 6 -4 20 -8 30 -8 11 0 38 -4 59 -10 22 -5 44 -8 48 -5
4 3 8 2 8 -3 0 -4 47 -8 105 -9 58 0 105 4 105 9 0 5 7 7 15 3 8 -3 15 -1 15
5 0 6 4 8 9 5 5 -3 12 1 15 10 4 10 2 13 -7 8 -9 -5 -9 -4 0 6 14 15 12 21
-43 118 -83 145 -56 199 133 270 38 15 55 17 64 8 9 -8 10 -8 5 2 -7 11 11 16
52 15 6 -1 12 3 12 8 0 5 16 9 36 9 23 0 33 4 28 11 -5 8 -1 8 13 0 11 -6 23
-8 26 -5 6 7 68 17 110 18 15 1 27 5 27 10 0 5 6 3 13 -3 8 -6 17 -8 21 -4 7
8 26 12 71 15 17 1 35 5 42 10 6 5 14 5 18 -2 4 -6 13 -7 23 -2 9 5 36 8 60 8
23 -1 42 2 42 5 0 4 10 7 23 6 30 -1 162 18 162 23 0 1 9 3 20 5 11 1 36 6 55
10 19 4 41 8 48 8 6 0 12 4 12 9 0 5 6 8 13 6 17 -3 80 31 92 51 5 9 10 23 12
32 3 17 -58 89 -76 89 -6 0 -11 5 -11 10 0 6 -7 10 -15 10 -8 0 -15 3 -15 6 0
9 24 29 40 32 8 2 17 8 18 13 2 5 8 7 12 4 5 -3 17 -1 27 4 17 9 52 23 63 25
3 1 10 4 15 7 13 8 68 23 78 21 4 -1 7 2 7 8 0 6 3 9 8 9 4 -1 10 0 15 1 4 1
10 3 15 5 4 1 23 9 42 17 19 9 38 14 42 12 5 -3 8 0 8 6 0 6 4 9 9 6 5 -4 11
-1 13 4 2 6 13 12 25 13 12 0 19 5 17 9 -3 4 0 8 7 8 26 0 100 57 115 88 12
26 13 39 4 65 -10 32 -69 107 -84 107 -4 0 -14 6 -21 13 -35 30 -45 37 -45 30
0 -4 -4 -3 -8 3 -7 11 -122 68 -159 79 -13 3 -23 10 -23 14 0 4 -8 7 -17 8
-10 1 -31 7 -48 14 -16 7 -33 13 -37 13 -3 1 -10 4 -14 9 -4 4 -16 7 -26 7
-10 0 -18 4 -18 10 0 5 -7 7 -15 4 -8 -3 -20 -2 -27 2 -7 5 -15 9 -18 10 -3 0
-12 3 -20 7 -16 6 -189 66 -205 71 -5 2 -23 6 -40 11 -16 4 -35 12 -41 17 -7
5 -16 8 -20 7 -5 -1 -12 0 -16 1 -5 1 -11 3 -15 5 -5 1 -21 7 -36 13 -16 7
-32 10 -37 7 -5 -3 -10 -1 -12 5 -2 6 -13 12 -25 14 -12 3 -31 10 -42 16 -12
6 -21 8 -21 5 0 -3 -10 0 -22 7 -13 7 -27 13 -33 14 -5 0 -12 2 -15 3 -3 1
-16 5 -30 7 -13 2 -27 8 -30 13 -3 4 -13 7 -22 5 -10 -1 -18 2 -18 7 0 5 -3 8
-7 7 -5 -1 -18 3 -29 10 -12 6 -24 9 -27 6 -3 -3 -18 1 -35 10 -16 8 -32 12
-36 9 -3 -4 -6 0 -6 7 0 7 -3 11 -6 7 -4 -3 -22 0 -41 8 -20 8 -44 15 -54 15
-11 0 -19 3 -19 8 0 4 -21 13 -47 20 -65 16 -65 17 -88 29 -11 5 -26 8 -34 5
-9 -3 -11 0 -6 8 5 9 4 11 -4 6 -6 -4 -17 -3 -24 2 -7 6 -15 11 -20 11 -18 2
-64 13 -82 21 -41 17 -60 23 -67 22 -5 -1 -8 3 -8 9 0 5 -4 8 -8 5 -8 -5 -67
13 -89 27 -7 5 -17 5 -23 2 -5 -3 -10 -2 -10 3 0 6 -17 13 -37 18 -43 8 -43 8
-63 17 -44 19 -99 35 -104 30 -3 -4 -6 -2 -6 4 0 6 -15 14 -32 18 -18 4 -35 8
-38 9 -3 1 -11 5 -17 9 -7 5 -13 5 -13 1 0 -3 -6 -2 -12 3 -7 6 -34 16 -60 23
-27 7 -48 16 -48 20 0 5 -9 6 -20 3 -12 -3 -20 0 -20 7 0 7 -7 10 -17 6 -9 -4
-19 -2 -23 3 -3 6 -15 12 -25 14 -11 1 -25 6 -31 9 -6 4 -23 9 -38 12 -15 3
-34 10 -42 17 -8 6 -14 8 -14 4 0 -4 -8 -1 -17 6 -11 10 -14 10 -9 1 4 -6 -9
-3 -28 9 -20 12 -36 18 -36 14 0 -4 -8 -1 -17 6 -14 12 -16 12 -8 0 5 -9 -5
-6 -22 7 -17 12 -33 19 -37 15 -6 -6 -25 1 -88 32 -21 11 -28 11 -28 2 0 -8
-3 -8 -9 1 -4 8 -11 13 -15 13 -9 -1 -39 9 -60 20 -14 8 -16 8 -10 -3 6 -10 4
-10 -9 1 -9 7 -17 10 -17 6 0 -4 -6 -2 -14 4 -11 9 -16 9 -22 0z"/>
<path d="M2993 1142 c-15 -9 -25 -62 -12 -62 5 0 9 -8 9 -18 0 -10 5 -23 12
-30 9 -9 9 -12 -2 -12 -13 -1 -13 -2 0 -13 8 -7 15 -16 15 -22 1 -21 27 -101
37 -112 7 -9 6 -13 -3 -13 -12 0 -12 -2 0 -9 7 -5 11 -13 7 -19 -3 -5 0 -12 8
-15 8 -3 12 -16 11 -31 -2 -14 1 -26 7 -26 6 0 8 -9 5 -20 -3 -11 -1 -18 4
-14 5 3 10 -2 10 -10 2 -25 4 -30 12 -43 5 -7 5 -13 1 -13 -3 0 0 -8 7 -17 9
-11 10 -14 2 -9 -7 4 -5 -6 5 -23 20 -36 49 -46 57 -21 3 10 -6 60 -21 111
-14 52 -28 109 -31 127 -3 17 -9 32 -14 32 -5 0 -8 3 -7 8 4 14 -14 92 -21 92
-4 0 -8 11 -9 25 -5 55 -7 65 -13 65 -3 0 -9 16 -12 35 -8 48 -37 74 -64 57z"/>
<path d="M1993 1064 c-20 -21 -15 -50 14 -86 16 -18 32 -39 38 -46 5 -7 18
-22 28 -33 9 -10 17 -21 17 -24 0 -5 39 -52 73 -87 9 -10 17 -21 17 -26 0 -4
8 -14 18 -23 9 -8 26 -28 37 -43 11 -16 29 -39 40 -51 19 -22 37 -44 82 -104
10 -13 26 -31 36 -39 9 -9 17 -22 17 -29 0 -7 8 -13 17 -13 9 0 14 -3 10 -6
-10 -11 54 -79 76 -79 22 -1 36 27 25 54 -5 14 -13 28 -17 31 -4 3 -18 21 -31
40 -14 19 -32 42 -40 51 -8 9 -24 29 -35 44 -11 16 -26 34 -32 41 -7 7 -13 15
-13 18 0 6 -24 36 -47 61 -7 8 -13 17 -13 21 0 4 -11 17 -26 30 -14 13 -22 24
-19 24 4 0 -9 19 -29 41 -19 23 -33 46 -29 52 3 6 1 7 -5 3 -7 -4 -12 -3 -12
2 0 4 -8 17 -17 28 -44 48 -101 132 -95 139 4 5 2 5 -5 2 -6 -4 -13 -3 -15 2
-5 16 -52 20 -65 5z"/>
<path d="M2773 1055 c-23 -16 -36 -52 -22 -60 4 -3 6 -12 2 -20 -3 -8 -1 -15
4 -15 5 0 17 -29 28 -65 10 -35 22 -62 28 -58 5 3 6 -3 2 -16 -3 -11 -2 -21 3
-21 5 0 9 -7 10 -15 1 -8 3 -22 4 -30 1 -8 5 -15 10 -15 5 0 6 -4 3 -10 -3 -5
-2 -10 4 -10 6 0 8 -7 4 -16 -3 -9 -1 -19 6 -23 7 -4 13 -18 14 -29 1 -12 5
-22 9 -22 4 0 7 -3 7 -7 -1 -5 0 -11 1 -15 1 -5 3 -11 4 -15 4 -18 18 -60 26
-78 11 -26 23 -59 24 -65 1 -3 6 -18 13 -35 23 -62 26 -70 27 -83 1 -7 8 -17
16 -22 10 -7 11 -10 2 -10 -9 0 -9 -6 3 -23 8 -13 12 -27 8 -30 -3 -4 -2 -7 4
-7 5 0 10 -6 11 -12 1 -13 3 -23 17 -65 4 -12 7 -25 6 -28 -1 -3 9 -16 21 -29
23 -23 56 -26 68 -6 10 15 5 62 -8 86 -6 12 -8 24 -5 28 3 3 0 6 -7 6 -7 0
-11 3 -7 6 3 3 -3 30 -13 59 -10 29 -16 56 -13 59 4 3 2 6 -3 6 -6 0 -16 24
-23 53 -8 28 -18 58 -24 65 -5 6 -7 12 -4 12 3 0 -8 37 -23 82 -16 46 -26 86
-24 90 3 5 1 8 -3 8 -9 0 -58 153 -54 166 2 4 -1 10 -6 13 -7 5 -53 137 -57
165 -3 21 -31 53 -51 60 -12 3 -30 0 -42 -9z"/>
</g>
</svg>
